<?xml version="1.0" encoding="UTF-8" standalone="no"?>
<!-- Created with Inkscape (http://www.inkscape.org/) -->

<svg
   xmlns:dc="http://purl.org/dc/elements/1.1/"
   xmlns:cc="http://creativecommons.org/ns#"
   xmlns:rdf="http://www.w3.org/1999/02/22-rdf-syntax-ns#"
   xmlns:svg="http://www.w3.org/2000/svg"
   xmlns="http://www.w3.org/2000/svg"
   xmlns:sodipodi="http://sodipodi.sourceforge.net/DTD/sodipodi-0.dtd"
   xmlns:inkscape="http://www.inkscape.org/namespaces/inkscape"
   id="svg4136"
   version="1.1"
   inkscape:version="0.91 r13725"
   width="207.69231"
   height="207.69231"
   viewBox="0 0 207.69231 207.69231"
   sodipodi:docname="icon.svg">
  <metadata
     id="metadata4142">
    <rdf:RDF>
      <cc:Work
         rdf:about="">
        <dc:format>image/svg+xml</dc:format>
        <dc:type
           rdf:resource="http://purl.org/dc/dcmitype/StillImage" />
        <dc:title></dc:title>
      </cc:Work>
    </rdf:RDF>
  </metadata>
  <defs
     id="defs4140" />
  <sodipodi:namedview
     pagecolor="#ffffff"
     bordercolor="#666666"
     borderopacity="1"
     objecttolerance="10"
     gridtolerance="10"
     guidetolerance="10"
     inkscape:pageopacity="0"
     inkscape:pageshadow="2"
     inkscape:window-width="1280"
     inkscape:window-height="962"
     id="namedview4138"
     showgrid="false"
     showguides="true"
     inkscape:guide-bbox="true"
     inkscape:zoom="1.832037"
     inkscape:cx="106.81246"
     inkscape:cy="73.878624"
     inkscape:window-x="-8"
     inkscape:window-y="-8"
     inkscape:window-maximized="1"
     inkscape:current-layer="svg4136">
    <sodipodi:guide
       position="281.10786,-23.471141"
       orientation="-0.70710678,0.70710678"
       id="guide4168" />
  </sodipodi:namedview>
  <g
     id="g4170">
    <circle
       r="91.974121"
       cy="97.705444"
       cx="102.89093"
       id="path4164"
       style="opacity:1;fill:#ffffff;fill-opacity:1;fill-rule:evenodd;stroke:#000000;stroke-width:0;stroke-miterlimit:4;stroke-dasharray:none;stroke-dashoffset:0;stroke-opacity:1" />
    <g
       transform="translate(-1.0916818,-6.0042451)"
       id="g4146">
      <path
         inkscape:connector-curvature="0"
         id="path4160"
         d="M 95.695686,197.56809 C 78.954874,195.956 62.424006,189.81552 48.928548,180.19619 42.352111,175.50862 32.183687,165.3402 27.496118,158.76376 20.189907,148.5135 14.154341,134.73195 11.712401,122.72342 6.515209,97.165587 12.260736,70.303073 27.496118,48.928548 c 4.687569,-6.576437 14.855993,-16.744861 21.43243,-21.43243 10.25027,-7.306211 24.031809,-13.341777 36.040346,-15.783717 25.557826,-5.197192 52.420346,0.548335 73.794866,15.783717 6.57644,4.687569 16.74486,14.855993 21.43243,21.43243 20.63723,28.953054 23.36511,66.967082 7.0477,98.212332 -4.69976,8.99932 -9.62434,15.67342 -17.02697,23.07604 -16.16156,16.16157 -35.56154,25.14343 -59.133,27.37759 -7.56664,0.71719 -7.66808,0.71701 -15.388234,-0.0264 z m 8.491034,-7.54003 c 0.62035,-1.00375 0.4028,-1.06868 -5.218187,-1.55736 -4.484933,-0.38992 -5.192308,-0.31716 -5.192308,0.53403 0,1.03853 1.639277,1.40949 7.043275,1.59385 1.6238,0.0554 3.13905,-0.20134 3.36722,-0.57052 z m 15.8295,-0.9098 c 3.29341,-0.50609 5.08054,-2.19711 2.31609,-2.19154 -2.18851,0.004 -9.10166,1.10138 -9.50918,1.50889 -0.81569,0.8157 0.81689,1.71243 2.58111,1.41774 1.08536,-0.18129 3.16075,-0.51208 4.61198,-0.73509 z m -34.56351,-1.67622 c -0.135629,-0.40688 -2.070944,-1.27802 -4.300704,-1.93586 -2.229753,-0.65785 -4.549732,-1.34924 -5.155502,-1.53642 -0.718049,-0.22189 -1.101398,-0.004 -1.101398,0.62467 0,0.60896 1.335241,1.43046 3.618881,2.22651 4.155092,1.44843 7.308585,1.7307 6.938723,0.6211 z m 51.16955,-3.40632 c 4.48205,-1.8059 5.30796,-2.37645 4.74909,-3.28071 -0.51471,-0.83284 -9.83289,3.04654 -9.83289,4.09367 0,1.12324 0.46149,1.04944 5.0838,-0.81296 z M 67.331978,181.1014 c -0.01517,-1.11739 -8.804211,-5.75504 -9.530408,-5.02884 -0.724666,0.72466 0.180804,1.50038 4.585482,3.92839 3.684026,2.03075 4.961415,2.31502 4.944926,1.10045 z m 87.650542,-7.22013 c 2.66387,-1.93388 3.91706,-3.9512 2.45457,-3.9512 -1.48713,0 -9.03441,6.20551 -8.53334,7.01626 0.40912,0.66199 2.16311,-0.22242 6.07877,-3.06506 z M 50.943024,170.71679 c -0.03926,-1.2011 -6.00236,-6.45105 -7.327348,-6.45105 -1.550431,0 -0.808698,1.16677 2.768699,4.35525 3.876588,3.45515 4.61416,3.79424 4.558649,2.0958 z M 171.81818,157.25672 c 0,-0.29888 -0.3968,-0.54343 -0.88178,-0.54343 -1.32877,0 -7.48581,7.37206 -6.92071,8.28641 0.32142,0.52006 1.65687,-0.51766 4.13852,-3.21586 2.01519,-2.19102 3.66397,-4.22823 3.66397,-4.52712 z m -134.055942,0.1798 c 0,-1.07331 -6.377973,-8.92726 -6.958308,-8.56859 -0.727969,0.44991 0.06439,2.06108 3.007112,6.11459 1.934206,2.66431 3.951196,3.91702 3.951196,2.454 z m 73.016632,-27.31414 c 0.006,-13.22276 0.25972,-23.21159 0.60446,-23.75874 0.44646,-0.70857 2.28871,-1.02255 7.38547,-1.25874 l 6.79064,-0.31469 0.74578,-5.034964 c 0.41017,-2.769231 0.7642,-6.371528 0.78671,-8.005104 l 0.0409,-2.970138 -7.70979,-0.176715 -7.70979,-0.176715 -0.17871,-6.772978 c -0.17129,-6.491857 -0.1137,-6.83798 1.38748,-8.339161 1.46039,-1.460392 1.99243,-1.566182 7.8765,-1.566182 7.51262,0 7.10539,0.581456 6.83206,-9.755245 l -0.18307,-6.923077 -11.64335,0 c -10.90092,0 -11.85371,0.09509 -14.94229,1.491324 -1.814423,0.820229 -4.286131,2.584025 -5.492698,3.919547 -3.768262,4.17102 -4.270928,6.056079 -4.682782,17.561157 l -0.371744,10.384615 -4.872254,0.18372 c -5.824951,0.219644 -5.649551,-0.09233 -5.381188,9.571525 l 0.183512,6.608391 4.379356,0.18909 c 2.408646,0.104 4.745184,0.4927 5.192308,0.86377 0.637464,0.52905 0.812952,5.68492 0.812952,23.88434 l 0,23.20965 10.069928,0 10.06993,0 0.01,-22.81468 z m 69.6019,14.50245 c 1.70083,-3.35641 1.85688,-4.27992 0.72063,-4.2645 -1.05067,0.0143 -5.67452,8.64964 -5.11567,9.55389 0.55636,0.9002 2.35614,-1.26581 4.39504,-5.28939 z M 27.195173,140.27098 c -0.542581,-2.57354 -3.587725,-8.73252 -4.317562,-8.73252 -0.467301,0 -0.849496,0.21242 -0.849322,0.47203 4.15e-4,0.61587 2.426103,6.99302 3.234511,8.50355 0.697695,1.30365 2.218146,1.1124 1.932373,-0.24306 z m 158.968167,-9.20454 c 1.3677,-3.63222 2.01848,-6.06367 2.01848,-7.54148 0,-2.77429 -1.44945,-1.14082 -2.67564,3.01534 -0.65785,2.22976 -1.34924,4.54974 -1.53642,5.15551 -0.57519,1.8614 1.47744,1.27248 2.19358,-0.62937 z M 20.765586,121.94056 c -0.0052,-2.02375 -1.152262,-8.7608 -1.561252,-9.16979 -0.189307,-0.18931 -0.635179,-0.0532 -0.990827,0.30244 -0.61456,0.61456 0.224901,8.42857 1.048677,9.76147 0.630967,1.02092 1.50699,0.49993 1.503402,-0.89412 z M 190.29907,110.99608 c 0.58807,-4.29046 0.4893,-7.0206 -0.27101,-7.49049 -1.00375,-0.62035 -1.06868,-0.4028 -1.55736,5.21819 -0.38139,4.38684 -0.30563,5.19231 0.48836,5.19231 0.64091,0 1.06706,-0.92863 1.34001,-2.92001 z M 19.106147,100.60698 c 0.588845,-5.633774 0.50926,-6.830755 -0.454167,-6.830755 -1.241687,0 -2.347481,9.171625 -1.239392,10.279715 0.952653,0.95266 1.309444,0.22605 1.693559,-3.44896 z M 189.4743,89.570625 c -0.82386,-4.884344 -1.54654,-6.49209 -2.4922,-5.544384 -0.4108,0.411684 -0.36496,2.123617 0.13468,5.029704 0.85187,4.954746 1.50992,6.415263 2.46164,5.463541 0.41397,-0.413968 0.37879,-2.085809 -0.10412,-4.948861 z M 22.376717,80.582734 c 1.411205,-4.451003 1.476706,-5.687628 0.301261,-5.687628 -0.679776,0 -3.167488,7.304538 -3.167488,9.300524 0,2.804923 1.38492,1.059225 2.866227,-3.612896 z M 184.03658,70.842299 c -1.50714,-3.764776 -2.89594,-5.47944 -3.74799,-4.627385 -0.34596,0.345959 2.70943,8.030543 3.64952,9.178892 0.3927,0.479688 0.89738,0.581898 1.23015,0.249124 0.33277,-0.332767 -0.13151,-2.302263 -1.13168,-4.800631 z M 29.782377,62.8661 c 2.405907,-4.457326 2.569323,-5.437576 0.792846,-4.755878 -0.919814,0.352966 -4.771027,7.282948 -4.771027,8.585116 0,1.889163 1.855766,0.102877 3.978181,-3.829238 z M 176.85315,57.68987 c 0,-1.383176 -5.0256,-7.96959 -6.08099,-7.96959 -1.31581,0 -0.80499,1.157667 2.36128,5.351363 2.59579,3.438088 3.71971,4.229195 3.71971,2.618227 z M 40.517954,47.574446 c 2.812286,-3.291815 3.536644,-4.777243 2.329591,-4.777243 -0.676111,0 -6.973419,6.933649 -6.973419,7.678081 0,1.415377 2.050837,0.13429 4.643828,-2.900838 z M 161.48902,39.27873 c -3.80041,-3.477485 -4.76917,-4.007574 -4.78429,-2.61789 -0.0144,1.316731 7.15928,7.381043 7.87569,6.657834 0.4213,-0.425295 -0.60073,-1.760914 -3.0914,-4.039944 z M 55.071643,34.558864 c 3.438088,-2.595782 4.229195,-3.719703 2.618227,-3.719703 -1.383176,0 -7.96959,5.025598 -7.96959,6.080995 0,1.315801 1.157667,0.80498 5.351363,-2.361292 z M 149.67901,31.05853 c -0.20228,-1.033195 -7.03938,-5.232491 -8.54264,-5.24683 -1.98637,-0.01895 -0.38953,1.772016 3.47264,3.894827 4.83063,2.655108 5.35237,2.794238 5.07,1.352003 z M 72.067369,25.460854 c 3.273759,-1.447811 4.565832,-2.533947 3.857293,-3.24249 -0.713316,-0.713316 -9.520691,3.332773 -9.740631,4.474824 -0.250213,1.299269 0.527085,1.136455 5.883338,-1.232334 z m 60.573061,-2.647889 c 0.24156,-0.724677 -7.09773,-3.302475 -9.40253,-3.302475 -2.49857,0 -0.66729,1.442742 3.60504,2.840151 4.66256,1.525051 5.42304,1.585695 5.79749,0.462324 z M 90.000001,20.358817 c 3.526603,-0.489814 5.383655,-1.380757 4.571283,-2.193127 -0.719843,-0.719843 -8.845704,0.452438 -10.047015,1.449438 -1.151686,0.955813 -0.289762,1.961492 1.298511,1.515092 0.739781,-0.207922 2.619529,-0.555054 4.177221,-0.771403 z m 23.916089,-1.742289 c 0,-0.633669 -1.16474,-1.018695 -4.00024,-1.322351 -4.57396,-0.489829 -6.17469,-0.302992 -6.52931,0.7621 -0.24663,0.740783 1.8332,1.096727 7.85472,1.344257 1.94303,0.07987 2.67483,-0.134619 2.67483,-0.784006 z"
         style="fill:#95aed2" />
      <path
         inkscape:connector-curvature="0"
         id="path4158"
         d="M 89.685316,196.06556 C 73.473773,193.48038 58.998924,187.18191 46.302743,177.18844 2.7016776,142.86897 -1.5959065,78.624498 37.045809,38.80677 66.470917,8.4861429 113.33338,1.8210669 149.94523,22.749498 202.92019,53.03157 213.13045,125.10864 170.6465,168.88554 c -14.44465,14.88425 -33.75808,24.62217 -54.41582,27.43671 -6.4822,0.88317 -20.23109,0.75022 -26.545364,-0.25669 z m 15.306514,-5.54471 c 1.33044,-1.60308 -0.26101,-2.33464 -5.958604,-2.73906 -4.697252,-0.33342 -5.746916,-0.24181 -6.042072,0.52735 -0.824047,2.14745 0.849116,2.83608 7.159056,2.94653 2.70667,0.0474 4.40658,-0.21062 4.84162,-0.73482 z m 14.35229,-0.51075 c 4.39202,-0.76484 6.05763,-1.98091 4.58783,-3.34959 -0.7151,-0.66591 -1.84243,-0.69062 -5.73679,-0.12576 -5.08543,0.73762 -6.58524,1.53796 -5.95583,3.17819 0.44786,1.16708 1.78756,1.22311 7.10479,0.29716 z m -33.246179,-2.56573 c 0.155838,-0.82328 -0.990032,-1.41485 -5.268103,-2.71975 -3.972877,-1.21179 -5.656305,-1.47857 -6.158883,-0.97599 -1.198145,1.19814 0.437627,2.78065 4.067667,3.93518 4.137426,1.31591 7.08305,1.22007 7.359319,-0.23944 z m 51.463299,-3.09751 c 3.53744,-1.47264 4.67652,-2.24394 4.67652,-3.1666 0,-2.03112 -1.416,-1.95316 -6.48552,0.35709 -3.71717,1.69397 -4.84315,2.50343 -4.84315,3.48173 0,1.73526 1.14772,1.61928 6.65215,-0.67222 z m -69.384307,-2.7143 c 0.43796,-1.14129 -0.866367,-2.23385 -5.689697,-4.76591 -6.886796,-3.61531 -8.171245,-0.83636 -1.481539,3.20536 4.218745,2.54884 6.593675,3.06566 7.171236,1.56055 z m 86.139917,-6.5155 c 2.43499,-1.83693 4.04762,-3.54028 4.17098,-4.40559 0.32186,-2.25776 -1.49612,-1.73632 -6.2605,1.79566 -4.0468,3.00002 -4.92496,4.16587 -3.90565,5.18518 0.87475,0.87475 2.14551,0.32889 5.99517,-2.57525 z M 51.476243,170.80928 c 0.251066,-1.68492 -6.285261,-7.33516 -8.16526,-7.05836 -2.452104,0.36104 -1.893942,1.59172 2.35784,5.19877 4.284833,3.63508 5.485563,4.01957 5.80742,1.85959 z m 116.442817,-7.64494 c 3.563,-3.80792 4.74154,-5.59717 4.23092,-6.42337 -0.87718,-1.4193 -2.67589,-0.46903 -5.83879,3.08467 -3.1344,3.52166 -3.8355,4.95774 -2.88461,5.90863 0.86091,0.86091 1.76764,0.34221 4.49248,-2.56993 z M 38.391609,157.67071 c 0,-1.37554 -6.302002,-9.76861 -7.334846,-9.76861 -1.443674,0 -1.694864,1.77225 -0.51361,3.62374 3.655289,5.72928 7.848456,9.01228 7.848456,6.14487 z m 73.486901,-27.6734 c 0.12536,-17.64264 0.35318,-23.37382 0.94406,-23.74911 0.42836,-0.27206 3.54908,-0.499 6.93494,-0.5043 4.6798,-0.007 6.23695,-0.22025 6.49314,-0.88789 0.60234,-1.56966 1.92272,-15.449524 1.53014,-16.084742 -0.20978,-0.339419 -3.76917,-0.697437 -7.90977,-0.795594 l -7.52836,-0.17847 -0.17867,-6.388591 c -0.17526,-6.266763 -0.14664,-6.41379 1.50096,-7.70979 1.44779,-1.138833 2.53497,-1.3212 7.87647,-1.3212 7.40972,0 6.98426,0.657699 6.71777,-10.384615 l -0.18227,-7.552448 -10.95765,-0.172638 c -8.39382,-0.132245 -11.73415,0.05309 -14.27636,0.79214 -4.73124,1.375407 -8.378129,4.393872 -10.633573,8.801214 -1.818421,3.553357 -1.907314,4.109349 -2.209336,13.819122 l -0.314685,10.116806 -4.507836,0.183801 c -2.815194,0.114791 -4.772322,0.502502 -5.212227,1.032552 -0.458604,0.552575 -0.642544,3.5631 -0.527136,8.627387 l 0.177269,7.778636 3.776223,0.162 c 2.076923,0.0891 4.413462,0.30691 5.192308,0.48402 l 1.416084,0.32202 0,23.60427 0,23.60427 10.856639,-0.17221 10.85665,-0.1722 0.16522,-23.25444 z m 68.1935,16.6893 c 2.54884,-4.21874 3.06566,-6.59367 1.56055,-7.17123 -1.14129,-0.43796 -2.23385,0.86636 -4.76591,5.6897 -3.61531,6.88679 -0.83636,8.17124 3.20536,1.48153 z M 26.751676,136.75916 c -2.150792,-5.15892 -2.643616,-5.85007 -4.171396,-5.85007 -1.561367,0 -1.492446,1.02746 0.410655,6.122 1.833838,4.90912 3.191806,6.3566 4.621878,4.92653 0.809523,-0.80952 0.704612,-1.44285 -0.861137,-5.19846 z m 159.454694,-4.1714 c 1.06274,-1.28052 2.88711,-8.84644 2.42409,-10.05304 -0.22502,-0.58641 -0.82571,-1.06619 -1.33486,-1.06619 -1.02194,0 -4.48414,10.27682 -3.82274,11.347 0.53791,0.87035 1.91756,0.75538 2.73351,-0.22777 z M 21.229739,123.82867 c 0.973149,-1.2456 -0.560844,-10.58425 -1.874737,-11.41303 -0.776893,-0.49005 -1.276429,-0.46624 -1.829894,0.0872 -0.593987,0.59399 -0.596152,1.82347 -0.0099,5.59471 0.916986,5.89828 2.126225,7.76403 3.714483,5.7311 z M 190.94337,112.53844 c 0.67911,-3.39561 0.43293,-9.128 -0.42252,-9.83796 -1.61622,-1.34135 -2.38266,0.26632 -2.77458,5.81988 -0.29726,4.21226 -0.19375,5.63616 0.43812,6.02668 1.31911,0.81526 2.34333,0.0696 2.75898,-2.0086 z M 19.744621,102.14846 c 0.217382,-1.58597 0.395239,-4.260141 0.395239,-5.942594 0,-2.651897 -0.169596,-3.059012 -1.274318,-3.059012 -0.788793,0 -1.50818,0.615097 -1.888112,1.614399 -0.840011,2.209399 -0.775666,9.300647 0.09227,10.168587 1.245121,1.24512 2.268944,0.18055 2.674922,-2.78138 z M 190.53582,93.456385 c 0.24489,-3.049496 -1.30136,-9.241716 -2.49402,-9.987747 -2.08212,-1.302401 -2.59122,0.268162 -1.74099,5.370917 0.42356,2.542091 1.03918,5.134701 1.36803,5.761353 0.91926,1.751734 2.69121,1.044359 2.86698,-1.144523 z M 22.977526,80.913513 c 0.929993,-2.920651 1.504906,-5.611211 1.277584,-5.979021 -0.569647,-0.921714 -1.932545,-0.838007 -2.769172,0.170062 -1.062734,1.280517 -2.887104,8.84644 -2.424088,10.053038 0.929613,2.422529 2.247851,0.993732 3.915676,-4.244079 z M 186.00868,76.105857 c 0.53707,-0.86899 -2.66932,-9.708048 -3.88873,-10.72007 -0.73797,-0.612459 -1.12652,-0.565023 -1.92677,0.235221 -0.91694,0.916937 -0.85062,1.368372 0.77791,5.295582 0.97916,2.36126 2.04555,4.647222 2.36977,5.079914 0.72368,0.965795 2.10356,1.022356 2.66782,0.109353 z M 30.834632,62.487236 c 1.124392,-2.151252 1.877496,-4.346182 1.673563,-4.877622 -0.788383,-2.054495 -2.252102,-0.982084 -5.088421,3.72809 -2.310017,3.836162 -2.838334,6.30809 -1.458235,6.822884 1.134368,0.423139 2.545042,-1.219198 4.873093,-5.673352 z M 177.27804,56.249571 c -2.56352,-4.896518 -7.97734,-9.115256 -7.97734,-6.216373 0,0.992322 5.27506,8.492348 6.51449,9.262224 0.3978,0.247097 1.10278,0.06989 1.56661,-0.393786 0.70486,-0.704626 0.68783,-1.140088 -0.10376,-2.652065 z M 41.090835,48.081585 c 3.125425,-3.385793 3.878133,-5.913752 1.760839,-5.913752 -1.288675,0 -7.606918,7.059276 -7.606918,8.499091 0,0.983164 1.292148,1.572596 2.227198,1.015968 0.359575,-0.214052 1.988071,-1.83464 3.618881,-3.601307 z M 165.40015,42.98731 c 0.13661,-0.92191 -0.90093,-2.196593 -3.67391,-4.51364 -3.97515,-3.321553 -5.26902,-3.850763 -5.83144,-2.385127 -0.43006,1.12071 -0.11932,1.521301 4.16989,5.375732 3.77833,3.395338 5.00611,3.745813 5.33546,1.523035 z M 55.371246,35.167425 c 2.43043,-1.773301 4.418964,-3.437923 4.418964,-3.699161 0,-0.261237 -0.40448,-0.810666 -0.898845,-1.220952 -1.121935,-0.931123 -3.278871,0.103954 -7.12563,3.419471 -2.6444,2.279205 -3.547186,4.724826 -1.74414,4.724826 0.511877,0 2.91922,-1.450883 5.349651,-3.224184 z M 150.36055,31.85434 c 0.57311,-0.690544 0.30865,-1.222825 -1.26571,-2.547565 -4.18337,-3.52007 -8.86812,-5.100755 -9.5845,-3.233909 -0.41988,1.09418 0.58414,1.974523 5.17291,4.535724 4.10952,2.293707 4.70004,2.423284 5.6773,1.24575 z M 71.52808,26.483034 c 4.630846,-1.975522 6.032838,-3.299736 4.799423,-4.533152 -0.569895,-0.569894 -1.836541,-0.342942 -5.458324,0.977997 -5.350412,1.951402 -6.621287,2.995811 -5.414633,4.449744 1.032464,1.244041 1.075053,1.237768 6.073534,-0.894589 z m 61.26912,-2.558671 c 1.63467,-1.04207 -0.12353,-2.706904 -4.14623,-3.926024 -4.3328,-1.313104 -6.77585,-1.230755 -7.0541,0.237777 -0.14925,0.787762 0.91896,1.415162 4.40022,2.584402 5.51208,1.851326 5.60412,1.866268 6.80011,1.103845 z M 91.761534,20.786156 c 3.09432,-0.521606 4.235406,-1.389232 3.691441,-2.806788 -0.447854,-1.167078 -1.787551,-1.223111 -7.104789,-0.297154 -4.170619,0.726282 -5.671617,1.765279 -5.016518,3.472452 0.322634,0.840761 0.886846,0.943871 3.059925,0.559202 1.465395,-0.259398 3.88187,-0.676869 5.369941,-0.927712 z m 22.783926,-1.920614 c 0,-1.707455 -2.28681,-2.501905 -7.20167,-2.501905 -3.977,0 -5.78079,0.859949 -4.87567,2.324458 0.52282,0.845949 2.82685,1.230002 8.14377,1.357466 3.56106,0.08537 3.93357,-0.02638 3.93357,-1.180019 z"
         style="fill:#6b8ec0" />
      <path
         inkscape:connector-curvature="0"
         id="path4156"
         d="M 94.405595,196.29509 C 78.925488,194.54183 64.894501,189.46173 51.854444,180.88888 44.376003,175.97238 31.719935,163.31631 26.803429,155.83787 14.982098,137.85658 9.2779012,116.05682 11.264078,96.45105 12.702396,82.253254 14.975844,74.283175 21.093162,61.993008 26.099915,51.934052 31.25585,44.976479 39.765037,36.796621 67.735971,9.9082379 108.68964,3.338691 143.87982,20.095137 c 10.1827,4.848673 16.68879,9.522081 25.44203,18.275322 8.75324,8.753242 13.42665,15.259336 18.27532,25.442028 5.20948,10.940419 7.48484,19.349887 8.83106,32.638563 1.98618,19.60577 -3.71802,41.40553 -15.53935,59.38682 -4.9165,7.47844 -17.57257,20.13451 -25.05101,25.05101 -18.59237,12.22306 -40.66437,17.75836 -61.432275,15.40621 z m 11.212185,-6.67494 c 0.22622,-1.59085 -0.32263,-1.77948 -6.992714,-2.40337 -4.555907,-0.42614 -6.107582,0.14508 -6.107582,2.2484 0,1.60363 0.859846,1.80176 7.237762,1.66779 5.325624,-0.11187 5.676184,-0.20233 5.862534,-1.51282 z m 13.96264,0.72507 c 3.70874,-0.55191 5.03497,-1.29857 5.03497,-2.83467 0,-1.85175 -1.27255,-2.05508 -6.99366,-1.11749 -3.66722,0.60101 -5.35384,1.1731 -5.84603,1.98297 -0.91014,1.49754 1.12773,3.11597 3.38688,2.68979 0.87212,-0.16453 2.86015,-0.4888 4.41784,-0.7206 z m -33.422846,-1.76894 c 1.337475,-1.61157 0.05306,-2.62684 -5.454233,-4.31139 -4.828796,-1.477 -5.606497,-1.56873 -6.426938,-0.758 -1.504045,1.48622 -0.05199,2.94702 4.444741,4.47157 4.799367,1.62716 6.470648,1.76151 7.43643,0.59782 z m 51.359906,-3.74376 c 4.35155,-1.78304 5.03497,-2.27121 5.03497,-3.59652 0,-0.97806 -0.4116,-1.61271 -1.13644,-1.7523 -1.16193,-0.22377 -8.92956,2.62656 -10.34957,3.79778 -1.47411,1.21583 -0.8143,3.35936 1.10139,3.57816 0.17308,0.0198 2.58042,-0.89243 5.34965,-2.02712 z m -69.230766,-3.54924 c 0,-1.27989 -0.864541,-2.03342 -4.978158,-4.33895 -3.66744,-2.05547 -5.231815,-2.63007 -5.941561,-2.18238 -2.368374,1.49393 -1.314018,2.89322 4.780827,6.34489 4.234265,2.39798 6.138892,2.45272 6.138892,0.17644 z m 86.496066,-6.02201 c 2.12975,-1.56784 4.03351,-3.27075 4.23055,-3.78424 0.35518,-0.92558 -0.76126,-2.8057 -1.66606,-2.8057 -0.79037,0 -9.02838,6.20066 -9.6036,7.22854 -0.29649,0.52978 -0.36541,1.24422 -0.15318,1.58763 0.82191,1.32988 3.47879,0.50748 7.19229,-2.22623 z M 51.482518,172.32168 c 1.445822,-1.44582 0.731139,-2.84326 -3.119508,-6.09964 -4.152687,-3.51181 -6.509863,-4.06396 -6.509863,-1.52487 0,0.90833 1.373462,2.56491 4.044031,4.87762 2.224218,1.92617 4.220897,3.50213 4.437063,3.50213 0.216168,0 0.732892,-0.33986 1.148277,-0.75524 z m 117.228962,-9.47203 c 4.70967,-5.56229 4.61267,-5.39481 3.73607,-6.45105 -1.34701,-1.62305 -2.73618,-1.05404 -5.66433,2.32016 -4.01155,4.62263 -4.56352,5.48637 -4.1668,6.52022 0.74889,1.95156 3.24962,0.97124 6.09506,-2.38933 z M 38.368728,158.31428 c 0.857636,-1.03338 0.818437,-1.116 -2.998955,-6.32127 -3.077948,-4.19698 -3.718151,-4.75103 -4.945566,-4.28003 -1.415597,0.54322 -0.947562,3.00126 1.126533,5.91637 3.998415,5.61971 5.299954,6.51405 6.817988,4.68493 z m 73.659242,-28.03456 0.31469,-23.6014 6.75493,-0.17852 c 5.62689,-0.14872 6.84956,-0.35892 7.32164,-1.25875 0.79714,-1.51943 2.30706,-16.374306 1.72397,-16.96076 -0.26417,-0.265695 -3.92736,-0.624695 -8.14043,-0.797772 l -7.66011,-0.314685 -0.18018,-5.393077 c -0.15689,-4.695829 -0.009,-5.611229 1.14707,-7.08042 1.27515,-1.621088 1.56641,-1.68772 7.41795,-1.696978 3.34987,-0.005 6.45278,-0.239419 6.89534,-0.520263 0.60632,-0.384766 0.76146,-2.748121 0.62937,-9.588266 l -0.17529,-9.07764 -11.32867,0 c -12.59279,0 -14.86834,0.42691 -19.61281,3.679506 -2.301614,1.57788 -3.57957,3.129392 -5.237169,6.358201 -2.165702,4.218526 -2.196636,4.391893 -2.517483,14.109659 l -0.324843,9.838649 -4.894741,0.184122 -4.894735,0.184129 0.174455,8.941745 0.174462,8.94175 4.877622,0.18382 4.877622,0.18382 0,22.89408 c 0,12.59174 0.174424,23.34861 0.387605,23.90415 0.338582,0.88234 1.751374,0.98834 11.171325,0.83819 l 10.78373,-0.17189 0.31468,-23.6014 z m 66.37752,19.42077 c 2.50728,-2.97973 4.86031,-7.98459 4.41443,-9.38944 -0.43617,-1.37424 -2.34844,-1.62698 -3.27947,-0.43343 -0.33753,0.4327 -1.70647,2.80978 -3.0421,5.28241 -2.07716,3.84541 -2.30702,4.64197 -1.58912,5.507 1.1689,1.40843 1.59757,1.28992 3.49626,-0.96654 z M 27.934644,140.34965 c -0.106415,-3.23998 -3.384818,-9.70972 -5.039853,-9.94586 -2.074363,-0.29597 -2.245281,1.41724 -0.582194,5.83566 2.24465,5.96348 2.754541,6.73152 4.320896,6.50853 1.12995,-0.16086 1.360671,-0.58613 1.301151,-2.39833 z m 158.639816,-7.72702 c 0.51654,-0.78832 1.43104,-3.30877 2.03225,-5.601 0.92789,-3.53778 0.96335,-4.32403 0.23464,-5.20207 -1.63882,-1.97466 -2.69695,-0.80424 -4.4979,4.97522 -1.27819,4.10188 -1.57434,5.86196 -1.08544,6.45105 1.00921,1.21602 2.2661,0.97984 3.31645,-0.6232 z M 21.791027,123.69569 c 0.194106,-0.50583 -0.02719,-3.23911 -0.49178,-6.07396 -0.925828,-5.64928 -2.169941,-7.37041 -4.002801,-5.53755 -0.845455,0.84545 -0.880686,1.61626 -0.258405,5.65366 0.396283,2.57112 0.983056,5.17038 1.30394,5.77615 0.707819,1.33623 2.960472,1.45491 3.449046,0.1817 z m 169.240233,-9.93906 c 0.19578,-0.78001 0.27197,-3.68298 0.16934,-6.45105 -0.18165,-4.89903 -0.22845,-5.03285 -1.76004,-5.03285 -1.52217,0 -1.58967,0.18138 -2.07211,5.56773 -0.52987,5.91584 -0.11652,7.33437 2.13718,7.33437 0.68864,0 1.31608,-0.58325 1.52563,-1.4182 z M 19.805629,104.31818 c 0.175517,-0.77884 0.393325,-3.50197 0.484019,-6.051383 0.13364,-3.756657 -0.03388,-4.763801 -0.883745,-5.31316 -0.772399,-0.499279 -1.311234,-0.459912 -2.045455,0.149432 -0.769899,0.638962 -0.996811,2.07528 -0.996811,6.309661 0,3.01531 0.188811,5.67119 0.41958,5.90195 0.940423,0.94043 2.717991,0.35436 3.022412,-0.9965 z M 190.68694,95.05807 c 0.86432,-1.615003 -0.42831,-9.720554 -1.82532,-11.445784 -1.03349,-1.276314 -2.84446,-1.115491 -3.37831,0.300014 -0.42174,1.118209 1.33071,10.547598 2.14191,11.525042 1.01102,1.218197 2.29168,1.059551 3.06172,-0.379272 z M 21.152343,86.371484 c 0.919329,-0.609187 3.586008,-9.695266 3.292606,-11.218777 -0.336145,-1.745459 -2.193054,-1.813802 -3.301879,-0.121525 -0.530402,0.809496 -1.456263,3.34727 -2.057468,5.639501 -0.914157,3.485429 -0.956236,4.3326 -0.257044,5.175075 0.92877,1.119103 1.301172,1.203351 2.323785,0.525726 z M 186.2598,76.509397 c 0.59472,-0.716595 0.31808,-1.984361 -1.33903,-6.136363 -1.83809,-4.605508 -2.27732,-5.233173 -3.66203,-5.233173 -2.22666,0 -2.30611,1.872799 -0.28425,6.70089 2.40421,5.741113 3.55303,6.755904 5.28531,4.668646 z M 30.662626,63.466402 c 2.729346,-4.875413 2.956141,-6.823045 0.794517,-6.823045 -1.470281,0 -3.692625,2.6866 -5.581065,6.746967 -1.683385,3.619479 -1.441472,5.405274 0.690585,5.097877 0.999955,-0.144176 2.165054,-1.572628 4.095963,-5.021799 z M 177.88863,58.834851 c 0.5607,-1.461154 -0.81987,-4.186625 -3.84856,-7.597713 -2.3379,-2.633076 -2.91475,-2.98702 -3.89895,-2.392321 -1.69305,1.023015 -1.4788,1.738329 1.96744,6.568714 3.08464,4.323544 4.99902,5.456698 5.78007,3.42132 z M 41.19693,48.3256 c 3.620922,-4.00125 4.308411,-6.243273 2.046639,-6.674456 -1.875449,-0.357535 -8.929903,7.809291 -8.258025,9.560178 0.739032,1.925887 2.668203,1.029622 6.211386,-2.885722 z m 124.83678,-5.043338 c 0.12721,-0.667499 -1.03395,-2.231853 -3.00275,-4.04543 -4.33506,-3.993277 -5.41296,-4.687602 -6.58122,-4.239296 -1.89449,0.726984 -0.97812,2.674543 2.91697,6.199394 3.97882,3.600625 6.24325,4.308904 6.667,2.085332 z M 55.596733,35.468594 c 3.953714,-2.867354 5.072324,-4.641359 3.528337,-5.595596 -1.17816,-0.728143 -3.540696,0.26824 -6.863139,2.894479 -3.665853,2.897691 -4.290348,3.96074 -3.140599,5.346104 1.00535,1.211372 1.354791,1.068637 6.475401,-2.644987 z m 95.233617,-3.708818 c 0.53584,-1.396359 -1.25153,-3.084032 -5.71969,-5.400657 -4.27781,-2.217943 -6.24723,-2.1509 -5.90655,0.20107 0.13839,0.955368 1.48265,2.128162 4.2924,3.744863 4.40023,2.531854 6.74224,2.996411 7.33384,1.454724 z M 73.184457,26.169094 c 3.935317,-1.757929 4.936469,-3.073143 3.461816,-4.547795 -0.831669,-0.831671 -1.526683,-0.711587 -6.108867,1.055491 -5.18551,1.999744 -6.184913,2.875936 -5.453729,4.781371 0.510552,1.330479 3.191759,0.903821 8.10078,-1.289067 z m 60.527983,-2.719526 c 0.6093,-1.587823 -1.33059,-2.89459 -6.28978,-4.23698 -4.55264,-1.232343 -6.26881,-0.88519 -6.26881,1.268077 0,0.868655 1.07107,1.486409 4.40559,2.54097 5.53836,1.751539 7.60349,1.859933 8.153,0.427933 z M 90.478373,21.338495 c 4.44904,-0.759471 5.815334,-1.42366 5.815334,-2.826981 0,-1.630226 -2.172946,-2.132737 -6.369016,-1.472887 -5.409019,0.850593 -6.116766,1.10598 -6.847188,2.47078 -0.743419,1.389089 0.875077,3.42961 2.289713,2.886763 0.478089,-0.18346 2.778112,-0.659414 5.111157,-1.057675 z M 114.7599,19.405903 c 0.47591,-0.760044 0.42384,-1.32913 -0.18921,-2.067807 -0.68851,-0.829599 -1.91089,-0.985741 -6.5719,-0.839469 -5.3676,0.168446 -5.73847,0.26695 -5.92426,1.573533 -0.2145,1.508436 0.56318,1.847302 5.23316,2.280293 4.54018,0.420956 6.77357,0.137281 7.45221,-0.94655 z"
         style="fill:#4b75b3" />
      <path
         inkscape:connector-curvature="0"
         id="path4154"
         d="M 95.664337,195.99036 C 82.953951,194.47283 72.011361,191.23652 61.621899,185.92218 36.158988,172.89759 18.399957,148.87835 12.803663,119.89511 c -1.502191,-7.77986 -1.502191,-24.318048 0,-32.097906 5.661368,-29.320255 23.650683,-53.406146 49.583493,-66.38733 13.919697,-6.96778 25.597304,-9.699922 41.458994,-9.699922 15.8617,0 27.53931,2.732142 41.459,9.699922 25.93282,12.981184 43.92213,37.067075 49.5835,66.38733 1.50219,7.779858 1.50219,24.318046 0,32.097906 -5.5888,28.94443 -23.36005,53.00489 -48.73769,65.98587 -12.95236,6.6253 -24.84029,9.66958 -39.47264,10.10823 -4.84615,0.14528 -9.802445,0.1458 -11.013983,10e-4 z m 9.944053,-4.78756 c 1.09927,-1.09927 0.92425,-2.88998 -0.34615,-3.54182 -0.60577,-0.31081 -3.42739,-0.73592 -6.270263,-0.94469 -4.175157,-0.30659 -5.354862,-0.19357 -6.136364,0.58794 -1.289813,1.28982 -1.226064,3.18192 0.133899,3.97403 1.578436,0.91935 11.684498,0.85892 12.618878,-0.0755 z m 17.55576,-1.24367 c 2.03896,-0.97282 2.82705,-4.04786 1.19766,-4.67312 -0.82871,-0.318 -6.98926,0.40599 -11.50518,1.3521 -1.70785,0.35781 -2.47457,2.52164 -1.36657,3.8567 0.66568,0.8021 1.70108,0.92758 5.36649,0.65036 2.49791,-0.18891 5.33634,-0.72263 6.3076,-1.18604 z m -36.670643,-0.87821 c 2.080674,-2.08067 0.591621,-3.51371 -5.40771,-5.20427 -5.784156,-1.62993 -7.188055,-1.68936 -7.711056,-0.32644 -0.862105,2.24661 0.275847,3.32417 5.177071,4.90232 5.761838,1.85525 6.644958,1.92513 7.941695,0.62839 z m 52.440063,-4.40572 c 3.29132,-1.49732 4.56294,-2.40294 4.56294,-3.24963 0,-1.43472 -1.16574,-2.68431 -2.50418,-2.68431 -1.27966,0 -9.01477,3.25769 -10.33321,4.35189 -2.18746,1.81543 -0.47919,4.66368 2.38482,3.97628 0.72968,-0.17513 3.38001,-1.25253 5.88963,-2.39423 z m -70.920166,-1.55049 c 1.515449,-0.81104 1.56943,-2.6223 0.115967,-3.89105 -0.605769,-0.52878 -3.061384,-1.97289 -5.456917,-3.20913 -4.765414,-2.45924 -6.658467,-2.32548 -6.658467,0.47047 0,1.45438 2.465718,3.41053 7.867133,6.2413 2.27739,1.19354 2.575523,1.22156 4.132284,0.38841 z m 86.585196,-7.10636 c 2.02846,-1.4976 4.06554,-3.18332 4.52683,-3.74603 1.00063,-1.22063 0.4698,-3.32646 -0.97864,-3.88228 -1.08024,-0.41453 -6.23836,2.79107 -9.71122,6.03521 -1.57326,1.46965 -1.75807,1.94508 -1.17764,3.02961 1.06414,1.98838 3.29235,1.55233 7.34067,-1.43651 z m -101.960261,-4.633 c 0.368074,-1.46653 0.01381,-2.05701 -2.662834,-4.43838 -4.66106,-4.14688 -5.719081,-4.75612 -7.488402,-4.31205 -2.88,0.72284 -2.044945,2.97294 2.563234,6.90677 4.719043,4.02848 6.906267,4.55991 7.588002,1.84366 z m 116.903351,-8.74338 c 3.99438,-4.67909 4.55526,-6.90743 1.906,-7.57235 -1.4143,-0.35497 -2.1165,0.12086 -5.32278,3.60689 -4.12099,4.48053 -4.83237,5.8552 -3.72222,7.19286 1.57883,1.90237 3.50216,1.03288 7.139,-3.2274 z M 38.697535,158.83493 c 1.281272,-1.28127 1.163202,-1.57333 -2.871659,-7.10338 -2.796285,-3.8325 -3.548925,-4.49407 -4.930112,-4.33356 -3.294208,0.38282 -2.111117,4.23917 3.132862,10.21173 2.190464,2.4948 3.148037,2.74609 4.668909,1.22521 z m 73.204565,-4.765 c 0.56005,-0.56005 0.75524,-6.74126 0.75524,-23.91608 l 0,-23.16084 6.53134,0 c 5.02651,0 6.71114,-0.21667 7.31178,-0.94039 0.80254,-0.96701 2.72811,-14.600692 2.39317,-16.9445 -0.17558,-1.228651 -0.68103,-1.330666 -8.05447,-1.625602 l -7.86713,-0.314685 -0.17941,-5.704168 c -0.24238,-7.706348 0.10947,-8.029391 9.21073,-8.456671 l 6.70295,-0.314686 0.17398,-9.252163 c 0.168,-8.933378 0.12701,-9.277313 -1.1898,-9.982046 -0.94433,-0.505389 -4.67584,-0.644441 -12.13203,-0.452092 -8.95081,0.230907 -11.32281,0.496803 -14.05404,1.575429 -9.524422,3.761415 -12.747284,10.356699 -12.758399,26.108877 l -0.005,6.739257 -4.877623,0.18382 -4.877622,0.183814 -0.175286,9.077639 c -0.132086,6.840147 0.02304,9.203497 0.62937,9.588267 0.442561,0.28084 2.71637,0.51496 5.052909,0.52026 l 4.248535,0.01 0,22.30168 c 0,12.9673 0.256903,22.97739 0.613793,23.91609 l 0.613794,1.6144 10.588999,0 c 7.39673,0 10.81669,-0.22768 11.34425,-0.75525 z m 67.6137,-4.76582 c 3.35688,-5.07259 4.42628,-7.77515 3.70395,-9.3605 -0.79751,-1.75035 -2.64186,-1.9271 -3.97202,-0.38067 -0.52105,0.60577 -2.0308,3.13653 -3.35501,5.62392 -2.02807,3.80952 -2.27883,4.67772 -1.5906,5.50699 1.4385,1.73329 3.51287,1.18036 5.21368,-1.38974 z M 28.195805,142.74126 c 1.121956,-1.12195 0.935592,-2.51184 -0.926943,-6.91306 -1.973105,-4.6625 -3.122749,-6.17785 -4.68692,-6.17785 -2.423634,0 -2.571564,2.15861 -0.50468,7.36438 1.071839,2.69959 2.241949,5.26237 2.600244,5.69506 0.825334,0.99671 2.537743,1.01202 3.518299,0.0315 z M 186.5189,133.74084 c 0.51946,-0.51946 1.39459,-2.49281 1.94473,-4.38523 1.72263,-5.92564 1.80929,-6.96481 0.67536,-8.09874 -1.25431,-1.25431 -1.67568,-1.29164 -2.93925,-0.26037 -0.97821,0.79838 -3.68226,9.38575 -3.68226,11.69393 0,1.98023 2.43293,2.6189 4.00142,1.05041 z M 22.422472,124.31966 c 0.304845,-0.79442 -0.439366,-7.0292 -1.368277,-11.46303 -0.347624,-1.65926 -2.513741,-2.48113 -3.776705,-1.43296 -1.563417,1.29752 -0.773885,10.77065 1.084277,13.0096 0.915683,1.10333 3.622785,1.02759 4.060705,-0.11361 z m 168.884058,-9.73283 c 0.91958,-1.71825 0.83791,-11.56127 -0.10373,-12.50291 -1.09927,-1.09927 -2.88998,-0.92425 -3.54182,0.34615 -0.31081,0.60577 -0.73592,3.42739 -0.94469,6.27026 -0.30659,4.17516 -0.19357,5.35486 0.58794,6.13637 1.33075,1.33074 3.21948,1.21283 4.0023,-0.24987 z M 20.031324,105.26224 c 0.310817,-0.60577 0.735928,-3.42739 0.944691,-6.270263 0.306598,-4.175157 0.193569,-5.354862 -0.587933,-6.136364 -1.234663,-1.234662 -2.415565,-1.227732 -3.664805,0.02152 -1.239506,1.239496 -1.428574,11.536447 -0.233766,12.731257 1.099263,1.09927 2.889975,0.92425 3.541813,-0.34615 z M 191.1805,92.832169 c 0.3587,-6.778976 -2.42253,-12.179776 -5.21912,-10.134862 -1.13085,0.826898 -1.15291,1.186489 -0.39466,6.430827 0.90233,6.240852 1.48336,7.311663 3.81997,7.040052 1.48152,-0.172221 1.64221,-0.471065 1.79381,-3.336017 z M 21.329467,86.909193 c 0.94592,-0.59901 3.823149,-8.960381 3.836931,-11.150314 0.01108,-1.760853 -1.498604,-2.957658 -3.092682,-2.451719 -0.928687,0.294753 -1.703541,1.765793 -2.86237,5.434137 -1.864751,5.90298 -1.906732,6.445435 -0.599957,7.75221 1.130753,1.130752 1.49977,1.187188 2.718078,0.415686 z M 186.16783,77.286714 c 0.41539,-0.415384 0.75525,-1.329829 0.75525,-2.032105 0,-1.823961 -3.05184,-9.567082 -4.12019,-10.453733 -1.41583,-1.175035 -4.06163,-0.217108 -4.06163,1.47053 0,2.045197 3.47704,9.995243 4.79209,10.956833 1.37304,1.003991 1.68211,1.010851 2.63448,0.05847 z M 28.458647,68.129371 c 0.528785,-0.605769 1.972895,-3.061384 3.209133,-5.456917 2.454685,-4.756593 2.325453,-6.658467 -0.452443,-6.658467 -1.54358,0 -3.313967,2.207978 -6.014026,7.50053 -1.129852,2.214693 -1.272158,3.041528 -0.728747,4.234186 0.797637,1.750619 2.636903,1.926271 3.986083,0.380668 z M 178.35315,59.012906 c 0.8522,-1.35955 -0.65956,-4.384391 -4.20335,-8.410351 -2.64467,-3.004497 -3.5793,-3.320907 -5.15502,-1.74518 -1.28124,1.281233 -1.16312,1.573441 2.87064,7.102005 3.42949,4.700338 4.99391,5.436652 6.48773,3.053526 z M 41.228377,49.248252 c 1.905552,-1.990384 3.641234,-4.280089 3.857072,-5.088232 0.49882,-1.867685 -1.040249,-3.532096 -2.761068,-2.98593 -1.814686,0.575959 -7.708996,7.799445 -7.708996,9.447385 0,3.480486 2.45403,2.970894 6.612992,-1.373223 z M 166.44039,44.144608 c 0.56624,-1.784054 -0.0615,-2.801467 -3.62255,-5.871639 -4.54424,-3.917792 -5.64967,-4.44365 -7.10468,-3.37972 -1.7162,1.254916 -0.67558,3.284353 3.68162,7.179969 3.84723,3.439672 6.37543,4.182955 7.04561,2.07139 z M 55.960759,35.825876 c 3.832501,-2.796285 4.494071,-3.548925 4.333563,-4.930112 -0.379631,-3.266766 -4.523561,-2.038066 -10.102014,2.995306 -2.605702,2.351095 -2.863195,3.278203 -1.334933,4.806465 1.281272,1.281272 1.573331,1.163202 7.103384,-2.871659 z m 95.374741,-3.63931 c 0.63785,-2.009714 -0.20293,-2.963191 -5.06711,-5.746266 -4.1079,-2.350358 -4.9182,-2.608619 -6.26262,-1.996058 -1.77308,0.80787 -2.01867,2.695834 -0.51483,3.957716 0.56617,0.475077 2.6195,1.751279 4.56294,2.836003 4.15628,2.31981 6.7396,2.656349 7.28162,0.948605 z M 72.151043,27.115138 c 4.491328,-1.916005 6.197514,-3.555862 5.524496,-5.309728 -0.571632,-1.489634 -3.18048,-1.294197 -7.864231,0.589132 -5.032687,2.023634 -5.900004,2.819795 -5.370426,4.929813 0.543455,2.165288 2.252782,2.118905 7.710161,-0.209217 z m 61.880497,-3.153461 c 1.13965,-2.129443 0.0524,-3.128842 -5.21369,-4.792396 -5.28865,-1.670685 -7.56298,-1.649897 -8.22495,0.07518 -0.68744,1.791423 0.62967,2.936711 5.04197,4.384205 5.53295,1.815138 7.56043,1.895548 8.39667,0.33301 z M 90.852056,21.800933 c 4.850987,-0.851277 6.503129,-2.195165 5.34926,-4.351195 -0.607595,-1.135297 -1.121683,-1.223565 -5.290112,-0.908308 -6.774426,0.512349 -9.38858,2.16842 -8.221947,5.20862 0.411312,1.071865 2.278435,1.083503 8.162799,0.05088 z M 114.81519,20.40959 c 0.54395,-0.543955 0.98901,-1.373376 0.98901,-1.843156 0,-2.119857 -1.87915,-2.832168 -7.47153,-2.832168 -5.64246,0 -7.004,0.506633 -7.004,2.606213 0,1.878244 1.43126,2.258891 11.12638,2.959096 0.75412,0.05447 1.81618,-0.346028 2.36014,-0.889985 z"
         style="fill:#2759a4" />
      <path
         inkscape:connector-curvature="0"
         id="path4152"
         d="m 26.828698,105.71561 c -0.855454,-2.62855 -0.989259,-7.270091 -0.369743,-12.825961 3.642578,-32.666922 28.922425,-59.657772 62.234101,-66.44626 8.578719,-1.748231 21.727484,-1.748231 30.306194,0 30.97097,6.311483 54.9689,29.948914 61.33106,60.409759 1.05502,5.051203 1.46045,16.252392 0.63652,17.585542 -0.32495,0.52577 -1.09672,-0.731 -2.21687,-3.61003 -7.03291,-18.076095 -21.74193,-33.610271 -40.33196,-42.594525 -3.31241,-1.600832 -6.62258,-2.955802 -7.35595,-3.011044 -0.73337,-0.05524 -1.45468,-0.564237 -1.60292,-1.131097 -0.30453,-1.164542 -4.01163,-1.854231 -9.96655,-1.854231 -2.02861,0 -3.68838,-0.24273 -3.68838,-0.5394 0,-0.959995 -12.17806,-1.41055 -19.563246,-0.723786 C 83.060976,52.20021 71.004569,56.407018 60.165063,63.562431 45.839994,73.01875 35.635264,85.458035 29.339411,101.13805 c -1.215251,3.02662 -2.345072,5.08652 -2.510713,4.57756 z"
         style="fill:#225093" />
      <path
         inkscape:connector-curvature="0"
         id="path4150"
         d="m 29.58042,83.87129 c 0,-4.825938 4.917135,-16.459754 10.577095,-25.025136 3.834208,-5.802415 13.722956,-15.697282 19.632695,-19.644843 13.904503,-9.287865 27.417632,-13.397115 44.05594,-13.397115 24.85446,0 47.07222,10.927031 61.70649,30.348174 5.93937,7.882134 12.55925,22.600633 12.55925,27.923951 0,0.644563 -1.36612,-0.806633 -3.17115,-3.36865 -9.48077,-13.456719 -23.66631,-24.535688 -39.07891,-30.5208 -6.33567,-2.460306 -8.33533,-3.058209 -15.65204,-4.679993 C 113.2836,43.971653 95.374008,44.00069 87.797204,45.559428 75.78085,48.031494 64.417192,52.777344 54.838903,59.323937 48.700955,63.519118 37.003507,75.10232 32.817596,81.130174 29.807453,85.464876 29.58042,85.657123 29.58042,83.87129 Z"
         style="fill:#1c4279" />
      <path
         inkscape:connector-curvature="0"
         id="path4148"
         d="m 39.847266,61.326383 c 3.351008,-6.707744 11.971351,-15.906792 20.30424,-21.667314 30.186587,-20.867972 71.350264,-17.353791 97.258044,8.30301 4.44482,4.401747 11.67259,14.144597 10.99552,14.821665 -0.16944,0.169444 -2.09056,-1.250086 -4.26916,-3.154508 C 155.89845,52.428452 142.41459,45.028424 131.28183,41.598704 115.15471,36.630353 95.40851,36.449873 78.67133,41.117843 64.920135,44.953026 51.159837,52.616057 40.68423,62.272636 l -2.427659,2.237854 1.590695,-3.184107 z"
         style="fill:#16345d" />
    </g>
  </g>
</svg>
